<?xml version="1.0" encoding="utf-8" standalone="no"?>
<!DOCTYPE svg PUBLIC "-//W3C//DTD SVG 1.1//EN"
  "http://www.w3.org/Graphics/SVG/1.1/DTD/svg11.dtd">
<svg xmlns:xlink="http://www.w3.org/1999/xlink" width="1440pt" height="432pt" viewBox="0 0 1440 432" xmlns="http://www.w3.org/2000/svg" version="1.1">
 <metadata>
  <rdf:RDF xmlns:dc="http://purl.org/dc/elements/1.1/" xmlns:cc="http://creativecommons.org/ns#" xmlns:rdf="http://www.w3.org/1999/02/22-rdf-syntax-ns#">
   <cc:Work>
    <dc:type rdf:resource="http://purl.org/dc/dcmitype/StillImage"/>
    <dc:date>2022-09-30T13:14:55.786631</dc:date>
    <dc:format>image/svg+xml</dc:format>
    <dc:creator>
     <cc:Agent>
      <dc:title>Matplotlib v3.5.1, https://matplotlib.org/</dc:title>
     </cc:Agent>
    </dc:creator>
   </cc:Work>
  </rdf:RDF>
 </metadata>
 <defs>
  <style type="text/css">*{stroke-linejoin: round; stroke-linecap: butt}</style>
 </defs>
 <g id="figure_1">
  <g id="patch_1">
   <path d="M 0 432 
L 1440 432 
L 1440 0 
L 0 0 
z
" style="fill: #ffffff"/>
  </g>
  <g id="axes_1">
   <g id="patch_2">
    <path d="M 180 378 
L 1296 378 
L 1296 51.84 
L 180 51.84 
z
" style="fill: #eaeaf2"/>
   </g>
   <g id="matplotlib.axis_1">
    <g id="xtick_1">
     <g id="line2d_1">
      <path d="M 377.667897 378 
L 377.667897 51.84 
" clip-path="url(#p06d84ac070)" style="fill: none; stroke: #ffffff; stroke-linecap: round"/>
     </g>
     <g id="text_1">
      <!-- 2004 -->
      <g style="fill: #262626" transform="translate(365.433834 395.373594)scale(0.11 -0.11)">
       <defs>
        <path id="ArialMT-32" d="M 3222 541 
L 3222 0 
L 194 0 
Q 188 203 259 391 
Q 375 700 629 1000 
Q 884 1300 1366 1694 
Q 2113 2306 2375 2664 
Q 2638 3022 2638 3341 
Q 2638 3675 2398 3904 
Q 2159 4134 1775 4134 
Q 1369 4134 1125 3890 
Q 881 3647 878 3216 
L 300 3275 
Q 359 3922 746 4261 
Q 1134 4600 1788 4600 
Q 2447 4600 2831 4234 
Q 3216 3869 3216 3328 
Q 3216 3053 3103 2787 
Q 2991 2522 2730 2228 
Q 2469 1934 1863 1422 
Q 1356 997 1212 845 
Q 1069 694 975 541 
L 3222 541 
z
" transform="scale(0.015625)"/>
        <path id="ArialMT-30" d="M 266 2259 
Q 266 3072 433 3567 
Q 600 4063 929 4331 
Q 1259 4600 1759 4600 
Q 2128 4600 2406 4451 
Q 2684 4303 2865 4023 
Q 3047 3744 3150 3342 
Q 3253 2941 3253 2259 
Q 3253 1453 3087 958 
Q 2922 463 2592 192 
Q 2263 -78 1759 -78 
Q 1097 -78 719 397 
Q 266 969 266 2259 
z
M 844 2259 
Q 844 1131 1108 757 
Q 1372 384 1759 384 
Q 2147 384 2411 759 
Q 2675 1134 2675 2259 
Q 2675 3391 2411 3762 
Q 2147 4134 1753 4134 
Q 1366 4134 1134 3806 
Q 844 3388 844 2259 
z
" transform="scale(0.015625)"/>
        <path id="ArialMT-34" d="M 2069 0 
L 2069 1097 
L 81 1097 
L 81 1613 
L 2172 4581 
L 2631 4581 
L 2631 1613 
L 3250 1613 
L 3250 1097 
L 2631 1097 
L 2631 0 
L 2069 0 
z
M 2069 1613 
L 2069 3678 
L 634 1613 
L 2069 1613 
z
" transform="scale(0.015625)"/>
       </defs>
       <use xlink:href="#ArialMT-32"/>
       <use xlink:href="#ArialMT-30" x="55.615234"/>
       <use xlink:href="#ArialMT-30" x="111.230469"/>
       <use xlink:href="#ArialMT-34" x="166.845703"/>
      </g>
     </g>
    </g>
    <g id="xtick_2">
     <g id="line2d_2">
      <path d="M 624.752768 378 
L 624.752768 51.84 
" clip-path="url(#p06d84ac070)" style="fill: none; stroke: #ffffff; stroke-linecap: round"/>
     </g>
     <g id="text_2">
      <!-- 2009 -->
      <g style="fill: #262626" transform="translate(612.518705 395.373594)scale(0.11 -0.11)">
       <defs>
        <path id="ArialMT-39" d="M 350 1059 
L 891 1109 
Q 959 728 1153 556 
Q 1347 384 1650 384 
Q 1909 384 2104 503 
Q 2300 622 2425 820 
Q 2550 1019 2634 1356 
Q 2719 1694 2719 2044 
Q 2719 2081 2716 2156 
Q 2547 1888 2255 1720 
Q 1963 1553 1622 1553 
Q 1053 1553 659 1965 
Q 266 2378 266 3053 
Q 266 3750 677 4175 
Q 1088 4600 1706 4600 
Q 2153 4600 2523 4359 
Q 2894 4119 3086 3673 
Q 3278 3228 3278 2384 
Q 3278 1506 3087 986 
Q 2897 466 2520 194 
Q 2144 -78 1638 -78 
Q 1100 -78 759 220 
Q 419 519 350 1059 
z
M 2653 3081 
Q 2653 3566 2395 3850 
Q 2138 4134 1775 4134 
Q 1400 4134 1122 3828 
Q 844 3522 844 3034 
Q 844 2597 1108 2323 
Q 1372 2050 1759 2050 
Q 2150 2050 2401 2323 
Q 2653 2597 2653 3081 
z
" transform="scale(0.015625)"/>
       </defs>
       <use xlink:href="#ArialMT-32"/>
       <use xlink:href="#ArialMT-30" x="55.615234"/>
       <use xlink:href="#ArialMT-30" x="111.230469"/>
       <use xlink:href="#ArialMT-39" x="166.845703"/>
      </g>
     </g>
    </g>
    <g id="xtick_3">
     <g id="line2d_3">
      <path d="M 871.837638 378 
L 871.837638 51.84 
" clip-path="url(#p06d84ac070)" style="fill: none; stroke: #ffffff; stroke-linecap: round"/>
     </g>
     <g id="text_3">
      <!-- 2014 -->
      <g style="fill: #262626" transform="translate(859.603576 395.373594)scale(0.11 -0.11)">
       <defs>
        <path id="ArialMT-31" d="M 2384 0 
L 1822 0 
L 1822 3584 
Q 1619 3391 1289 3197 
Q 959 3003 697 2906 
L 697 3450 
Q 1169 3672 1522 3987 
Q 1875 4303 2022 4600 
L 2384 4600 
L 2384 0 
z
" transform="scale(0.015625)"/>
       </defs>
       <use xlink:href="#ArialMT-32"/>
       <use xlink:href="#ArialMT-30" x="55.615234"/>
       <use xlink:href="#ArialMT-31" x="111.230469"/>
       <use xlink:href="#ArialMT-34" x="166.845703"/>
      </g>
     </g>
    </g>
    <g id="xtick_4">
     <g id="line2d_4">
      <path d="M 1118.922509 378 
L 1118.922509 51.84 
" clip-path="url(#p06d84ac070)" style="fill: none; stroke: #ffffff; stroke-linecap: round"/>
     </g>
     <g id="text_4">
      <!-- 2019 -->
      <g style="fill: #262626" transform="translate(1106.688447 395.373594)scale(0.11 -0.11)">
       <use xlink:href="#ArialMT-32"/>
       <use xlink:href="#ArialMT-30" x="55.615234"/>
       <use xlink:href="#ArialMT-31" x="111.230469"/>
       <use xlink:href="#ArialMT-39" x="166.845703"/>
      </g>
     </g>
    </g>
    <g id="xtick_5"/>
    <g id="xtick_6"/>
    <g id="xtick_7"/>
    <g id="xtick_8"/>
    <g id="xtick_9"/>
    <g id="xtick_10"/>
    <g id="xtick_11"/>
    <g id="xtick_12"/>
    <g id="xtick_13"/>
    <g id="xtick_14"/>
    <g id="xtick_15"/>
    <g id="xtick_16"/>
    <g id="xtick_17"/>
    <g id="xtick_18"/>
    <g id="xtick_19"/>
    <g id="xtick_20"/>
    <g id="xtick_21"/>
    <g id="xtick_22"/>
    <g id="xtick_23"/>
    <g id="text_5">
     <!-- Date -->
     <g style="fill: #262626" transform="translate(725.326875 410.149219)scale(0.12 -0.12)">
      <defs>
       <path id="ArialMT-44" d="M 494 0 
L 494 4581 
L 2072 4581 
Q 2606 4581 2888 4516 
Q 3281 4425 3559 4188 
Q 3922 3881 4101 3404 
Q 4281 2928 4281 2316 
Q 4281 1794 4159 1391 
Q 4038 988 3847 723 
Q 3656 459 3429 307 
Q 3203 156 2883 78 
Q 2563 0 2147 0 
L 494 0 
z
M 1100 541 
L 2078 541 
Q 2531 541 2789 625 
Q 3047 709 3200 863 
Q 3416 1078 3536 1442 
Q 3656 1806 3656 2325 
Q 3656 3044 3420 3430 
Q 3184 3816 2847 3947 
Q 2603 4041 2063 4041 
L 1100 4041 
L 1100 541 
z
" transform="scale(0.015625)"/>
       <path id="ArialMT-61" d="M 2588 409 
Q 2275 144 1986 34 
Q 1697 -75 1366 -75 
Q 819 -75 525 192 
Q 231 459 231 875 
Q 231 1119 342 1320 
Q 453 1522 633 1644 
Q 813 1766 1038 1828 
Q 1203 1872 1538 1913 
Q 2219 1994 2541 2106 
Q 2544 2222 2544 2253 
Q 2544 2597 2384 2738 
Q 2169 2928 1744 2928 
Q 1347 2928 1158 2789 
Q 969 2650 878 2297 
L 328 2372 
Q 403 2725 575 2942 
Q 747 3159 1072 3276 
Q 1397 3394 1825 3394 
Q 2250 3394 2515 3294 
Q 2781 3194 2906 3042 
Q 3031 2891 3081 2659 
Q 3109 2516 3109 2141 
L 3109 1391 
Q 3109 606 3145 398 
Q 3181 191 3288 0 
L 2700 0 
Q 2613 175 2588 409 
z
M 2541 1666 
Q 2234 1541 1622 1453 
Q 1275 1403 1131 1340 
Q 988 1278 909 1158 
Q 831 1038 831 891 
Q 831 666 1001 516 
Q 1172 366 1500 366 
Q 1825 366 2078 508 
Q 2331 650 2450 897 
Q 2541 1088 2541 1459 
L 2541 1666 
z
" transform="scale(0.015625)"/>
       <path id="ArialMT-74" d="M 1650 503 
L 1731 6 
Q 1494 -44 1306 -44 
Q 1000 -44 831 53 
Q 663 150 594 308 
Q 525 466 525 972 
L 525 2881 
L 113 2881 
L 113 3319 
L 525 3319 
L 525 4141 
L 1084 4478 
L 1084 3319 
L 1650 3319 
L 1650 2881 
L 1084 2881 
L 1084 941 
Q 1084 700 1114 631 
Q 1144 563 1211 522 
Q 1278 481 1403 481 
Q 1497 481 1650 503 
z
" transform="scale(0.015625)"/>
       <path id="ArialMT-65" d="M 2694 1069 
L 3275 997 
Q 3138 488 2766 206 
Q 2394 -75 1816 -75 
Q 1088 -75 661 373 
Q 234 822 234 1631 
Q 234 2469 665 2931 
Q 1097 3394 1784 3394 
Q 2450 3394 2872 2941 
Q 3294 2488 3294 1666 
Q 3294 1616 3291 1516 
L 816 1516 
Q 847 969 1125 678 
Q 1403 388 1819 388 
Q 2128 388 2347 550 
Q 2566 713 2694 1069 
z
M 847 1978 
L 2700 1978 
Q 2663 2397 2488 2606 
Q 2219 2931 1791 2931 
Q 1403 2931 1139 2672 
Q 875 2413 847 1978 
z
" transform="scale(0.015625)"/>
      </defs>
      <use xlink:href="#ArialMT-44"/>
      <use xlink:href="#ArialMT-61" x="72.216797"/>
      <use xlink:href="#ArialMT-74" x="127.832031"/>
      <use xlink:href="#ArialMT-65" x="155.615234"/>
     </g>
    </g>
   </g>
   <g id="matplotlib.axis_2">
    <g id="ytick_1">
     <g id="line2d_5">
      <path d="M 180 335.387676 
L 1296 335.387676 
" clip-path="url(#p06d84ac070)" style="fill: none; stroke: #ffffff; stroke-linecap: round"/>
     </g>
     <g id="text_6">
      <!-- 50 -->
      <g style="fill: #262626" transform="translate(158.265938 339.324473)scale(0.11 -0.11)">
       <defs>
        <path id="ArialMT-35" d="M 266 1200 
L 856 1250 
Q 922 819 1161 601 
Q 1400 384 1738 384 
Q 2144 384 2425 690 
Q 2706 997 2706 1503 
Q 2706 1984 2436 2262 
Q 2166 2541 1728 2541 
Q 1456 2541 1237 2417 
Q 1019 2294 894 2097 
L 366 2166 
L 809 4519 
L 3088 4519 
L 3088 3981 
L 1259 3981 
L 1013 2750 
Q 1425 3038 1878 3038 
Q 2478 3038 2890 2622 
Q 3303 2206 3303 1553 
Q 3303 931 2941 478 
Q 2500 -78 1738 -78 
Q 1113 -78 717 272 
Q 322 622 266 1200 
z
" transform="scale(0.015625)"/>
       </defs>
       <use xlink:href="#ArialMT-35"/>
       <use xlink:href="#ArialMT-30" x="55.615234"/>
      </g>
     </g>
    </g>
    <g id="ytick_2">
     <g id="line2d_6">
      <path d="M 180 284.290087 
L 1296 284.290087 
" clip-path="url(#p06d84ac070)" style="fill: none; stroke: #ffffff; stroke-linecap: round"/>
     </g>
     <g id="text_7">
      <!-- 100 -->
      <g style="fill: #262626" transform="translate(152.148906 288.226884)scale(0.11 -0.11)">
       <use xlink:href="#ArialMT-31"/>
       <use xlink:href="#ArialMT-30" x="55.615234"/>
       <use xlink:href="#ArialMT-30" x="111.230469"/>
      </g>
     </g>
    </g>
    <g id="ytick_3">
     <g id="line2d_7">
      <path d="M 180 233.192498 
L 1296 233.192498 
" clip-path="url(#p06d84ac070)" style="fill: none; stroke: #ffffff; stroke-linecap: round"/>
     </g>
     <g id="text_8">
      <!-- 150 -->
      <g style="fill: #262626" transform="translate(152.148906 237.129295)scale(0.11 -0.11)">
       <use xlink:href="#ArialMT-31"/>
       <use xlink:href="#ArialMT-35" x="55.615234"/>
       <use xlink:href="#ArialMT-30" x="111.230469"/>
      </g>
     </g>
    </g>
    <g id="ytick_4">
     <g id="line2d_8">
      <path d="M 180 182.094909 
L 1296 182.094909 
" clip-path="url(#p06d84ac070)" style="fill: none; stroke: #ffffff; stroke-linecap: round"/>
     </g>
     <g id="text_9">
      <!-- 200 -->
      <g style="fill: #262626" transform="translate(152.148906 186.031706)scale(0.11 -0.11)">
       <use xlink:href="#ArialMT-32"/>
       <use xlink:href="#ArialMT-30" x="55.615234"/>
       <use xlink:href="#ArialMT-30" x="111.230469"/>
      </g>
     </g>
    </g>
    <g id="ytick_5">
     <g id="line2d_9">
      <path d="M 180 130.997319 
L 1296 130.997319 
" clip-path="url(#p06d84ac070)" style="fill: none; stroke: #ffffff; stroke-linecap: round"/>
     </g>
     <g id="text_10">
      <!-- 250 -->
      <g style="fill: #262626" transform="translate(152.148906 134.934116)scale(0.11 -0.11)">
       <use xlink:href="#ArialMT-32"/>
       <use xlink:href="#ArialMT-35" x="55.615234"/>
       <use xlink:href="#ArialMT-30" x="111.230469"/>
      </g>
     </g>
    </g>
    <g id="ytick_6">
     <g id="line2d_10">
      <path d="M 180 79.89973 
L 1296 79.89973 
" clip-path="url(#p06d84ac070)" style="fill: none; stroke: #ffffff; stroke-linecap: round"/>
     </g>
     <g id="text_11">
      <!-- 300 -->
      <g style="fill: #262626" transform="translate(152.148906 83.836527)scale(0.11 -0.11)">
       <defs>
        <path id="ArialMT-33" d="M 269 1209 
L 831 1284 
Q 928 806 1161 595 
Q 1394 384 1728 384 
Q 2125 384 2398 659 
Q 2672 934 2672 1341 
Q 2672 1728 2419 1979 
Q 2166 2231 1775 2231 
Q 1616 2231 1378 2169 
L 1441 2663 
Q 1497 2656 1531 2656 
Q 1891 2656 2178 2843 
Q 2466 3031 2466 3422 
Q 2466 3731 2256 3934 
Q 2047 4138 1716 4138 
Q 1388 4138 1169 3931 
Q 950 3725 888 3313 
L 325 3413 
Q 428 3978 793 4289 
Q 1159 4600 1703 4600 
Q 2078 4600 2393 4439 
Q 2709 4278 2876 4000 
Q 3044 3722 3044 3409 
Q 3044 3113 2884 2869 
Q 2725 2625 2413 2481 
Q 2819 2388 3044 2092 
Q 3269 1797 3269 1353 
Q 3269 753 2831 336 
Q 2394 -81 1725 -81 
Q 1122 -81 723 278 
Q 325 638 269 1209 
z
" transform="scale(0.015625)"/>
       </defs>
       <use xlink:href="#ArialMT-33"/>
       <use xlink:href="#ArialMT-30" x="55.615234"/>
       <use xlink:href="#ArialMT-30" x="111.230469"/>
      </g>
     </g>
    </g>
   </g>
   <g id="line2d_11">
    <path d="M 180 302.531927 
L 184.118081 308.663637 
L 188.236162 311.382029 
L 192.354244 315.428958 
L 196.472325 315.745763 
L 200.590406 320.508058 
L 204.708487 320.988376 
L 208.826568 327.631062 
L 212.944649 327.917209 
L 217.062731 328.847185 
L 221.180812 333.159822 
L 225.298893 337.155653 
L 229.416974 336.215457 
L 233.535055 336.011067 
L 237.653137 336.900165 
L 241.771218 338.136727 
L 245.889299 336.021287 
L 250.00738 338.92363 
L 254.125461 342.469802 
L 258.243542 342.776388 
L 262.361624 344.411511 
L 266.479705 343.399778 
L 270.597786 341.274119 
L 274.715867 342.173436 
L 278.833948 342.071241 
L 282.95203 341.212802 
L 287.070111 335.908872 
L 291.188192 335.193506 
L 295.306273 338.146946 
L 299.424354 339.925142 
L 303.542435 340.82446 
L 307.660517 342.766168 
L 311.778598 337.288507 
L 315.896679 334.580335 
L 320.01476 330.594723 
L 324.132841 333.670797 
L 328.250923 331.310089 
L 332.369004 331.228333 
L 336.487085 335.786238 
L 340.605166 333.527724 
L 344.723247 332.12765 
L 348.841328 336.501604 
L 352.95941 334.488359 
L 357.077491 333.118943 
L 361.195572 331.197674 
L 365.313653 333.629919 
L 369.431734 335.581847 
L 373.549815 332.894114 
L 377.667897 326.506915 
L 381.785978 325.301012 
L 385.904059 324.350597 
L 390.02214 326.40472 
L 394.140221 325.260134 
L 398.258303 320.794205 
L 402.376384 326.741964 
L 406.494465 328.254453 
L 410.612546 323.665889 
L 414.730627 324.044012 
L 418.848708 317.258252 
L 422.96679 307.059173 
L 427.084871 305.393392 
L 431.202952 295.122776 
L 435.321033 282.818477 
L 439.439114 286.374869 
L 443.557196 284.514917 
L 447.675277 288.081528 
L 451.793358 296.062972 
L 455.911439 299.302559 
L 460.02952 305.965685 
L 464.147601 302.123146 
L 468.265683 298.668949 
L 472.383764 297.728753 
L 476.501845 283.063745 
L 480.619926 286.957381 
L 484.738007 291.689018 
L 488.856089 290.217408 
L 492.97417 294.509605 
L 497.092251 298.556534 
L 501.210332 295.970996 
L 505.328413 288.602724 
L 509.446494 288.398333 
L 513.564576 288.858212 
L 517.682657 280.733695 
L 521.800738 276.104253 
L 525.918819 278.352547 
L 530.0369 280.018329 
L 534.154982 284.198112 
L 538.273063 285.005453 
L 542.391144 284.198112 
L 546.509225 277.105766 
L 550.627306 277.953986 
L 554.745387 276.134912 
L 558.863469 270.830982 
L 562.98155 268.235225 
L 567.099631 269.543323 
L 571.217712 265.731443 
L 575.335793 261.469904 
L 579.453875 244.617919 
L 583.571956 247.785969 
L 587.690037 257.157267 
L 591.808118 256.942657 
L 595.926199 253.089899 
L 600.04428 250.790508 
L 604.162362 252.465535 
L 608.280443 257.01791 
L 612.398524 275.800334 
L 616.516605 265.803761 
L 620.634686 276.241706 
L 624.752768 275.715912 
L 628.870849 276.523254 
L 632.98893 278.29123 
L 637.107011 272.425227 
L 641.225092 260.734099 
L 645.343173 264.821906 
L 649.461255 271.106909 
L 653.579336 266.453135 
L 657.697417 267.530078 
L 661.815498 262.738982 
L 665.933579 264.188296 
L 670.051661 258.782171 
L 674.169742 256.850682 
L 678.287823 260.407074 
L 682.405904 258.434707 
L 686.523985 256.809804 
L 690.642066 255.573242 
L 694.760148 241.163722 
L 698.878229 229.707642 
L 702.99631 225.568738 
L 707.114391 219.283734 
L 711.232472 210.127046 
L 715.350554 208.76785 
L 719.468635 198.18043 
L 723.586716 184.803081 
L 727.704797 165.713022 
L 731.822878 157.230822 
L 735.940959 150.169135 
L 740.059041 153.510917 
L 744.177122 166.1729 
L 748.295203 171.507488 
L 752.413284 169.637316 
L 756.531365 168.768657 
L 760.649446 188.328815 
L 764.767528 188.574083 
L 768.885609 193.315939 
L 773.00369 193.438573 
L 777.121771 200.193675 
L 781.239852 215.032415 
L 785.357934 222.502882 
L 789.476015 225.189642 
L 793.594096 237.985452 
L 797.712177 223.807953 
L 801.830258 234.725426 
L 805.948339 231.8844 
L 810.066421 236.135719 
L 814.184502 247.14214 
L 818.302583 252.292777 
L 822.420664 248.135291 
L 826.538745 252.088386 
L 830.656827 252.22124 
L 834.774908 254.091412 
L 838.892989 256.738267 
L 843.01107 266.324175 
L 847.129151 264.94454 
L 851.247232 267.47898 
L 859.483395 277.105766 
L 863.601476 283.278355 
L 867.719557 277.586083 
L 871.837638 273.304105 
L 880.073801 217.832563 
L 884.191882 212.16073 
L 888.309963 218.94649 
L 892.428044 231.23035 
L 896.546125 230.637618 
L 900.664207 219.825369 
L 904.782288 221.143686 
L 908.900369 209.810241 
L 913.01845 220.755345 
L 917.136531 232.51801 
L 921.254613 234.991133 
L 925.372694 242.287869 
L 929.490775 256.656511 
L 933.608856 254.633046 
L 937.726937 260.283466 
L 941.845018 258.77288 
L 945.9631 264.088322 
L 950.081181 262.612057 
L 954.199262 270.860247 
L 958.317343 265.460161 
L 962.435424 268.933072 
L 966.553506 269.336145 
L 970.671587 273.1367 
L 974.789668 272.277287 
L 978.907749 266.067293 
L 983.02583 265.965032 
L 987.143911 263.943027 
L 991.261993 255.679979 
L 995.380074 250.751952 
L 999.498155 252.614469 
L 1003.616236 245.232019 
L 1007.734317 240.670265 
L 1011.852399 237.461005 
L 1015.97048 251.893751 
L 1020.088561 244.367076 
L 1024.206642 245.786521 
L 1032.442804 253.234048 
L 1036.560886 258.334289 
L 1040.678967 261.412767 
L 1044.797048 256.435575 
L 1048.915129 255.433279 
L 1053.03321 259.286643 
L 1057.151292 263.840832 
L 1061.269373 266.648877 
L 1065.387454 270.052352 
L 1069.505535 268.347175 
L 1073.623616 269.788591 
L 1077.741697 271.014447 
L 1081.859779 271.450966 
L 1085.97786 270.659472 
L 1090.095941 273.62529 
L 1094.214022 276.926584 
L 1102.450185 286.157193 
L 1106.568266 273.042579 
L 1110.686347 274.48957 
L 1114.804428 283.665164 
L 1118.922509 282.699559 
L 1123.04059 283.605379 
L 1131.276753 289.989512 
L 1135.394834 291.110505 
L 1139.512915 284.321257 
L 1143.630996 281.21579 
L 1147.749077 288.309609 
L 1151.867159 286.600185 
L 1155.98524 287.003147 
L 1164.221402 266.534405 
L 1168.339483 277.253485 
L 1172.457565 282.249249 
L 1176.575646 275.042353 
L 1180.693727 275.181245 
L 1184.811808 279.755541 
L 1188.929889 285.220952 
L 1193.04797 280.547078 
L 1197.166052 269.18856 
L 1201.284133 267.681048 
L 1205.402214 278.31074 
L 1209.520295 274.47497 
L 1213.638376 269.231163 
L 1217.756458 268.218362 
L 1221.874539 264.514298 
L 1225.99262 263.487592 
L 1230.110701 261.781135 
L 1234.228782 248.750229 
L 1238.346863 242.366293 
L 1242.464945 230.900816 
L 1246.583026 222.829907 
L 1250.701107 212.733023 
L 1254.819188 200.932574 
L 1258.937269 187.030423 
L 1263.055351 178.963509 
L 1267.173432 177.706458 
L 1271.291513 170.964322 
L 1275.409594 187.425498 
L 1279.527675 183.759717 
L 1283.645756 188.52601 
L 1287.763838 179.583233 
L 1291.881919 191.478543 
L 1296 181.982494 
L 1296 181.982494 
" clip-path="url(#p06d84ac070)" style="fill: none; stroke: #4c72b0; stroke-width: 1.5; stroke-linecap: round"/>
   </g>
   <g id="line2d_12">
    <path d="M 180 253.49868 
L 188.236162 264.351808 
L 192.354244 271.341958 
L 196.472325 273.753764 
L 200.590406 283.983502 
L 204.708487 282.583428 
L 208.826568 292.598555 
L 212.944649 294.530044 
L 217.062731 294.254117 
L 221.180812 300.631096 
L 225.298893 309.011101 
L 229.416974 309.501638 
L 233.535055 308.101564 
L 237.653137 307.856295 
L 241.771218 306.517538 
L 245.889299 303.788927 
L 250.00738 310.472492 
L 254.125461 315.255226 
L 258.243542 311.371809 
L 262.361624 316.174983 
L 266.479705 322.235157 
L 270.597786 320.170814 
L 274.715867 322.787011 
L 282.95203 322.439547 
L 287.070111 316.716617 
L 291.188192 315.326763 
L 295.306273 319.087545 
L 299.424354 322.16362 
L 303.542435 324.554987 
L 307.660517 327.109867 
L 311.778598 320.927059 
L 315.896679 317.0743 
L 320.01476 314.233274 
L 324.132841 319.670058 
L 328.250923 317.738569 
L 332.369004 317.534179 
L 336.487085 322.970962 
L 340.605166 320.671571 
L 344.723247 319.312375 
L 348.841328 323.522816 
L 352.95941 320.181034 
L 357.077491 319.394131 
L 361.195572 317.452423 
L 365.313653 318.862716 
L 369.431734 320.68179 
L 373.549815 318.341521 
L 377.667897 311.106102 
L 381.785978 308.275296 
L 385.904059 306.803685 
L 390.02214 309.614052 
L 394.140221 307.621246 
L 398.258303 302.164024 
L 402.376384 308.684076 
L 406.494465 309.481199 
L 410.612546 303.686732 
L 414.730627 301.642828 
L 418.848708 291.617481 
L 422.96679 278.413864 
L 427.084871 275.889643 
L 431.202952 262.256807 
L 435.321033 247.969921 
L 439.439114 254.13229 
L 443.557196 254.786339 
L 447.675277 262.532734 
L 451.793358 273.263227 
L 455.911439 275.153838 
L 460.02952 283.114843 
L 464.147601 277.943767 
L 468.265683 275.092521 
L 472.383764 276.431278 
L 476.501845 256.779145 
L 480.619926 262.512295 
L 484.738007 267.928639 
L 488.856089 266.027809 
L 497.092251 278.332108 
L 501.210332 276.267766 
L 505.328413 269.839689 
L 509.446494 272.1493 
L 513.564576 271.341958 
L 517.682657 259.814342 
L 521.800738 252.190582 
L 525.918819 257.647804 
L 530.0369 259.947196 
L 534.154982 265.557711 
L 538.273063 267.826444 
L 542.391144 268.950591 
L 546.509225 262.624709 
L 550.627306 263.053929 
L 554.745387 258.516463 
L 558.863469 253.253411 
L 562.98155 246.999067 
L 567.099631 250.238654 
L 571.217712 243.289382 
L 575.335793 240.693624 
L 579.453875 223.075175 
L 583.571956 231.516497 
L 587.690037 241.327234 
L 591.808118 239.732989 
L 595.926199 234.061157 
L 600.04428 231.986595 
L 604.162362 232.140374 
L 608.280443 234.869428 
L 612.398524 252.621134 
L 616.516605 239.876979 
L 620.634686 253.172677 
L 624.752768 241.041088 
L 628.870849 238.762135 
L 632.98893 228.941178 
L 637.107011 201.409797 
L 641.225092 169.78039 
L 645.343173 185.855691 
L 649.461255 195.083916 
L 653.579336 197.027571 
L 657.697417 205.139921 
L 661.815498 204.449175 
L 665.933579 204.240604 
L 670.051661 190.158108 
L 674.169742 174.420051 
L 678.287823 177.281516 
L 682.405904 176.259564 
L 686.523985 182.605885 
L 690.642066 181.757665 
L 694.760148 157.067309 
L 698.878229 145.795181 
L 702.99631 137.149469 
L 707.114391 133.276272 
L 711.232472 140.716081 
L 715.350554 137.108591 
L 723.586716 100.4614 
L 727.704797 83.537879 
L 731.822878 79.204803 
L 735.940959 66.665455 
L 740.059041 77.682095 
L 744.177122 92.214249 
L 748.295203 95.014397 
L 752.413284 93.215762 
L 756.531365 92.633249 
L 760.649446 123.169169 
L 764.767528 123.853876 
L 768.885609 129.362197 
L 773.00369 124.957584 
L 777.121771 136.985957 
L 781.239852 158.75353 
L 785.357934 167.317486 
L 789.476015 174.215174 
L 793.594096 197.76143 
L 797.712177 179.119515 
L 801.830258 195.237209 
L 805.948339 192.212231 
L 810.066421 201.113431 
L 814.184502 212.671706 
L 818.302583 218.476392 
L 822.420664 213.58403 
L 826.538745 221.235662 
L 830.656827 221.409394 
L 834.774908 221.174345 
L 838.892989 224.659201 
L 843.01107 235.69628 
L 847.129151 235.788255 
L 851.247232 240.080453 
L 859.483395 249.717458 
L 863.601476 259.098976 
L 867.719557 257.167487 
L 871.837638 250.667873 
L 880.073801 170.781902 
L 884.191882 161.022263 
L 888.309963 170.178951 
L 892.428044 187.030936 
L 896.546125 188.01201 
L 900.664207 170.240268 
L 904.782288 175.166076 
L 908.900369 159.009018 
L 917.136531 192.150914 
L 921.254613 197.158478 
L 925.372694 208.55324 
L 929.490775 228.808325 
L 933.608856 225.977518 
L 937.726937 233.001734 
L 941.845018 231.123975 
L 945.9631 238.793682 
L 950.081181 236.304098 
L 954.199262 247.962024 
L 958.317343 240.241643 
L 962.435424 244.80771 
L 966.553506 243.529076 
L 970.671587 248.243414 
L 974.789668 246.307546 
L 978.907749 238.101118 
L 983.02583 239.672159 
L 987.143911 238.823452 
L 991.261993 224.923394 
L 995.380074 218.62504 
L 999.498155 222.174525 
L 1003.616236 213.931494 
L 1007.734317 210.420979 
L 1011.852399 204.729283 
L 1015.97048 226.403951 
L 1020.088561 217.899454 
L 1024.206642 219.218329 
L 1028.324723 224.611213 
L 1036.560886 231.747103 
L 1040.678967 237.159993 
L 1044.797048 230.628372 
L 1048.915129 227.931668 
L 1053.03321 231.7181 
L 1057.151292 239.063611 
L 1061.269373 239.232697 
L 1065.387454 241.870815 
L 1069.505535 239.555077 
L 1073.623616 241.883176 
L 1077.741697 243.978469 
L 1081.859779 244.137115 
L 1085.97786 243.14542 
L 1090.095941 244.890926 
L 1094.214022 249.567231 
L 1098.332103 253.406352 
L 1102.450185 257.981471 
L 1106.568266 242.912188 
L 1110.686347 244.160363 
L 1114.804428 255.819021 
L 1118.922509 254.370126 
L 1123.04059 255.743908 
L 1127.158672 258.503324 
L 1131.276753 259.334536 
L 1135.394834 259.355797 
L 1139.512915 250.067477 
L 1143.630996 245.834041 
L 1147.749077 254.447701 
L 1151.867159 251.687392 
L 1155.98524 251.491211 
L 1160.103321 237.161564 
L 1164.221402 221.439566 
L 1168.339483 235.731119 
L 1172.457565 236.843932 
L 1176.575646 224.000506 
L 1180.693727 221.006652 
L 1184.811808 228.110964 
L 1188.929889 236.007753 
L 1193.04797 229.734746 
L 1197.166052 215.593028 
L 1201.284133 214.425282 
L 1205.402214 228.816222 
L 1209.520295 221.731552 
L 1213.638376 212.303803 
L 1217.756458 209.256854 
L 1221.874539 205.642211 
L 1225.99262 205.099932 
L 1230.110701 200.797091 
L 1234.228782 183.096897 
L 1238.346863 175.405056 
L 1242.464945 163.029048 
L 1246.583026 156.136869 
L 1250.701107 140.828496 
L 1254.819188 121.93108 
L 1258.937269 100.791676 
L 1263.055351 89.556286 
L 1267.173432 85.080052 
L 1271.291513 73.350384 
L 1275.409594 94.397488 
L 1279.527675 87.420322 
L 1283.645756 93.756972 
L 1287.763838 78.29155 
L 1291.881919 94.135915 
L 1296 84.335001 
L 1296 84.335001 
" clip-path="url(#p06d84ac070)" style="fill: none; stroke: #dd8452; stroke-width: 1.5; stroke-linecap: round"/>
   </g>
   <g id="line2d_13">
    <path d="M 180 272.936203 
L 184.118081 280.774573 
L 188.236162 283.544062 
L 192.354244 289.798407 
L 196.472325 290.248066 
L 200.590406 298.147753 
L 204.708487 297.217777 
L 208.826568 307.876734 
L 212.944649 309.041759 
L 217.062731 308.142442 
L 221.180812 313.374835 
L 225.298893 318.883155 
L 229.416974 319.056887 
L 233.535055 317.820325 
L 237.653137 318.525472 
L 241.771218 318.903594 
L 245.889299 315.745763 
L 254.125461 326.476257 
L 258.243542 325.454305 
L 266.479705 328.847185 
L 270.597786 326.343403 
L 274.715867 328.52016 
L 278.833948 326.956574 
L 282.95203 326.067476 
L 287.070111 320.600034 
L 291.188192 319.762034 
L 295.306273 323.737426 
L 299.424354 326.62955 
L 303.542435 328.632575 
L 307.660517 331.013723 
L 311.778598 324.248402 
L 315.896679 319.312375 
L 320.01476 315.081494 
L 324.132841 320.916839 
L 328.250923 319.475887 
L 332.369004 318.617448 
L 336.487085 323.379743 
L 340.605166 320.375205 
L 344.723247 318.77074 
L 348.841328 324.125768 
L 352.95941 322.153401 
L 357.077491 321.192766 
L 361.195572 318.617448 
L 369.431734 322.838108 
L 373.549815 320.201473 
L 377.667897 312.158712 
L 381.785978 308.60232 
L 385.904059 306.711709 
L 390.02214 309.389223 
L 394.140221 307.805198 
L 398.258303 302.470609 
L 402.376384 309.900199 
L 406.494465 311.259395 
L 410.612546 304.248806 
L 414.730627 304.167049 
L 418.848708 294.233678 
L 422.96679 280.079646 
L 427.084871 276.972912 
L 431.202952 262.972173 
L 435.321033 248.491116 
L 439.439114 254.387778 
L 443.557196 255.297315 
L 447.675277 262.665587 
L 451.793358 274.142106 
L 455.911439 275.950961 
L 460.02952 284.811283 
L 464.147601 279.13945 
L 468.265683 276.38018 
L 472.383764 278.393425 
L 476.501845 259.558854 
L 480.619926 264.750369 
L 484.738007 270.330226 
L 488.856089 268.531591 
L 497.092251 281.070939 
L 501.210332 279.180328 
L 505.328413 272.302593 
L 509.446494 274.244301 
L 513.564576 273.42674 
L 517.682657 261.531221 
L 521.800738 255.225778 
L 525.918819 259.22161 
L 530.0369 261.776489 
L 534.154982 266.835151 
L 538.273063 216.790172 
L 542.391144 270.759446 
L 546.509225 264.535759 
L 550.627306 266.273077 
L 554.745387 260.591025 
L 558.863469 255.634559 
L 562.98155 249.24736 
L 567.099631 252.609582 
L 571.217712 245.885139 
L 575.335793 243.555089 
L 579.453875 225.742469 
L 583.571956 233.304913 
L 587.690037 242.69665 
L 591.808118 241.41921 
L 595.926199 237.127012 
L 600.04428 235.890451 
L 604.162362 236.842812 
L 608.280443 240.071162 
L 612.398524 260.185355 
L 616.516605 247.29982 
L 620.634686 261.92365 
L 624.752768 255.368852 
L 628.870849 254.162949 
L 632.98893 255.144022 
L 637.107011 248.644409 
L 641.225092 232.180766 
L 645.343173 233.407108 
L 649.461255 242.492259 
L 653.579336 233.43582 
L 657.697417 234.694767 
L 661.815498 228.519856 
L 665.933579 230.933984 
L 670.051661 224.853371 
L 674.169742 224.097127 
L 678.287823 225.159957 
L 682.405904 218.374197 
L 686.523985 213.530146 
L 690.642066 209.40146 
L 694.760148 191.39467 
L 698.878229 178.814443 
L 702.99631 170.250487 
L 707.114391 158.886384 
L 711.232472 151.661185 
L 715.350554 147.879963 
L 719.468635 132.867491 
L 723.586716 116.925043 
L 727.704797 92.275566 
L 731.822878 88.003808 
L 735.940959 79.777096 
L 740.059041 89.005321 
L 744.177122 105.468964 
L 748.295203 112.581748 
L 752.413284 110.108625 
L 756.531365 105.571159 
L 760.649446 133.225174 
L 764.767528 136.015103 
L 768.885609 144.579059 
L 773.00369 144.068083 
L 777.121771 157.404554 
L 781.239852 180.807249 
L 785.357934 190.832596 
L 789.476015 197.457764 
L 793.594096 214.092219 
L 797.712177 191.384072 
L 801.830258 207.827655 
L 805.948339 203.576335 
L 810.066421 209.360582 
L 814.184502 223.064956 
L 818.302583 230.39235 
L 822.420664 225.740611 
L 826.538745 233.744352 
L 830.656827 233.417327 
L 834.774908 233.386669 
L 838.892989 236.064182 
L 843.01107 245.190212 
L 847.129151 245.057358 
L 851.247232 248.368482 
L 855.365314 251.301484 
L 859.483395 254.960071 
L 863.601476 261.786709 
L 867.719557 257.749999 
L 871.837638 250.841605 
L 880.073801 167.695608 
L 884.191882 158.099481 
L 888.309963 167.583193 
L 892.428044 184.251227 
L 896.546125 185.262959 
L 900.664207 168.840194 
L 904.782288 171.333756 
L 908.900369 156.249748 
L 917.136531 188.6354 
L 921.254613 192.314427 
L 925.372694 203.668311 
L 929.490775 222.216736 
L 933.608856 218.885173 
L 937.726937 224.523427 
L 941.845018 223.223358 
L 945.9631 228.648367 
L 950.081181 226.117185 
L 954.199262 237.130264 
L 958.317343 229.87069 
L 962.435424 235.2583 
L 966.553506 234.560055 
L 970.671587 238.16113 
L 974.789668 235.545907 
L 978.907749 225.529253 
L 983.02583 228.882295 
L 987.143911 227.888568 
L 991.261993 216.273518 
L 995.380074 211.184302 
L 999.498155 215.266131 
L 1003.616236 206.319811 
L 1007.734317 203.601641 
L 1011.852399 198.328148 
L 1015.97048 221.152977 
L 1020.088561 214.171188 
L 1024.206642 216.482564 
L 1028.324723 222.819243 
L 1032.442804 227.674496 
L 1036.560886 233.192498 
L 1040.678967 240.118544 
L 1044.797048 233.543368 
L 1048.915129 233.317798 
L 1053.03321 236.730309 
L 1057.151292 242.686895 
L 1061.269373 242.488078 
L 1065.387454 246.176152 
L 1069.505535 244.629996 
L 1073.623616 247.2101 
L 1077.741697 248.494523 
L 1081.859779 249.19675 
L 1085.97786 247.898828 
L 1090.095941 249.509175 
L 1094.214022 252.962155 
L 1098.332103 258.161599 
L 1102.450185 262.645148 
L 1106.568266 246.463935 
L 1110.686347 246.367779 
L 1114.804428 256.593661 
L 1118.922509 255.203017 
L 1123.04059 255.211471 
L 1127.158672 259.877119 
L 1131.276753 262.696757 
L 1135.394834 263.289867 
L 1139.512915 253.908994 
L 1143.630996 248.041013 
L 1147.749077 257.481505 
L 1151.867159 254.76152 
L 1155.98524 256.708941 
L 1160.103321 242.409043 
L 1164.221402 225.926907 
L 1168.339483 241.173012 
L 1172.457565 248.010288 
L 1176.575646 234.901945 
L 1180.693727 228.571418 
L 1184.811808 233.349197 
L 1188.929889 241.801331 
L 1193.04797 236.482294 
L 1197.166052 219.65115 
L 1201.284133 216.264331 
L 1205.402214 231.090529 
L 1209.520295 232.924844 
L 1213.638376 225.2157 
L 1217.756458 222.272943 
L 1221.874539 216.402852 
L 1225.99262 215.767331 
L 1230.110701 214.134491 
L 1234.228782 195.929329 
L 1238.346863 189.838769 
L 1246.583026 165.497483 
L 1250.701107 155.99426 
L 1254.819188 140.137615 
L 1258.937269 121.845759 
L 1263.055351 112.896433 
L 1267.173432 109.452539 
L 1271.291513 100.50951 
L 1275.409594 122.325387 
L 1279.527675 115.260722 
L 1283.645756 120.350293 
L 1287.763838 106.787493 
L 1291.881919 124.961089 
L 1296 112.162748 
L 1296 112.162748 
" clip-path="url(#p06d84ac070)" style="fill: none; stroke: #55a868; stroke-width: 1.5; stroke-linecap: round"/>
   </g>
   <g id="line2d_14">
    <path d="M 180 286.661015 
L 184.118081 292.966458 
L 188.236162 294.581142 
L 192.354244 298.127314 
L 196.472325 297.340411 
L 200.590406 306.446002 
L 204.708487 304.841538 
L 208.826568 314.366128 
L 212.944649 313.783616 
L 217.062731 312.618591 
L 221.180812 316.02169 
L 225.298893 320.68179 
L 229.416974 322.735913 
L 233.535055 322.613279 
L 237.653137 324.810475 
L 241.771218 330.165503 
L 245.889299 328.039843 
L 254.125461 339.036044 
L 258.243542 338.974727 
L 262.361624 343.134071 
L 266.479705 347.007268 
L 270.597786 342.72529 
L 274.715867 343.348681 
L 278.833948 342.398266 
L 282.95203 342.367607 
L 287.070111 336.716214 
L 291.188192 335.878213 
L 295.306273 340.098874 
L 299.424354 342.541339 
L 303.542435 342.234753 
L 307.660517 345.423243 
L 311.778598 340.977753 
L 315.896679 339.393727 
L 320.01476 336.15414 
L 324.132841 338.91341 
L 328.250923 336.092823 
L 332.369004 336.440287 
L 336.487085 341.754436 
L 340.605166 336.869507 
L 344.723247 334.24309 
L 348.841328 338.576166 
L 352.95941 335.898652 
L 357.077491 332.853236 
L 361.195572 330.420991 
L 369.431734 334.641652 
L 373.549815 330.492527 
L 377.667897 323.062938 
L 381.785978 319.526985 
L 385.904059 318.045155 
L 390.02214 321.386937 
L 394.140221 319.894887 
L 398.258303 315.347202 
L 402.376384 322.214718 
L 406.494465 323.379743 
L 410.612546 316.072788 
L 414.730627 315.040616 
L 418.848708 305.352513 
L 422.96679 292.71097 
L 427.084871 290.79992 
L 431.202952 278.045962 
L 435.321033 263.728417 
L 439.439114 269.492225 
L 443.557196 269.001688 
L 447.675277 276.901376 
L 451.793358 287.805601 
L 455.911439 289.420285 
L 460.02952 295.04102 
L 464.147601 290.013017 
L 468.265683 286.374869 
L 472.383764 286.77343 
L 476.501845 268.981249 
L 480.619926 275.082302 
L 484.738007 280.284036 
L 488.856089 278.679572 
L 497.092251 291.167823 
L 501.210332 289.849505 
L 505.328413 283.911965 
L 509.446494 284.770405 
L 513.564576 285.07699 
L 517.682657 274.029691 
L 521.800738 266.549004 
L 525.918819 271.51569 
L 530.0369 274.039911 
L 534.154982 279.272304 
L 538.273063 282.021354 
L 542.391144 282.767379 
L 546.509225 276.8094 
L 550.627306 277.913108 
L 558.863469 266.773834 
L 562.98155 261.684514 
L 567.099631 263.983905 
L 571.217712 257.790877 
L 575.335793 255.746974 
L 579.453875 239.549038 
L 583.571956 247.080823 
L 587.690037 256.012681 
L 591.808118 254.12207 
L 595.926199 249.90141 
L 600.04428 248.644409 
L 604.162362 250.280018 
L 608.280443 253.366291 
L 612.398524 273.795975 
L 616.516605 259.147428 
L 620.634686 276.154329 
L 624.752768 274.90857 
L 628.870849 276.431278 
L 632.98893 281.418403 
L 637.107011 278.209474 
L 641.225092 265.486174 
L 645.343173 268.531591 
L 649.461255 276.318863 
L 653.579336 267.063387 
L 657.697417 267.775346 
L 661.815498 259.125454 
L 665.933579 257.545609 
L 670.051661 250.729191 
L 674.169742 251.924874 
L 678.287823 259.180732 
L 682.405904 257.504731 
L 686.523985 258.015707 
L 690.642066 256.370364 
L 694.760148 240.14177 
L 698.878229 226.171689 
L 702.99631 219.692515 
L 711.232472 195.196331 
L 715.350554 191.680816 
L 719.468635 177.751614 
L 723.586716 161.890922 
L 727.704797 134.063175 
L 731.822878 119.776289 
L 735.940959 107.083648 
L 740.059041 111.927699 
L 744.177122 130.394368 
L 748.295203 135.401932 
L 752.413284 131.171051 
L 756.531365 125.233511 
L 760.649446 147.062401 
L 764.767528 144.538181 
L 768.885609 152.672917 
L 773.00369 153.265649 
L 777.121771 166.356851 
L 781.239852 190.239864 
L 785.357934 201.614188 
L 789.476015 208.120614 
L 793.594096 226.887055 
L 797.712177 206.230382 
L 801.830258 222.921882 
L 805.948339 216.299635 
L 810.066421 221.746638 
L 814.184502 234.980914 
L 818.302583 242.706869 
L 822.420664 238.127596 
L 826.538745 246.855993 
L 830.656827 249.942288 
L 834.774908 250.95402 
L 838.892989 253.335168 
L 843.01107 263.840832 
L 847.129151 264.392686 
L 851.247232 267.111078 
L 855.365314 271.362397 
L 859.483395 274.510009 
L 863.601476 281.663671 
L 867.719557 276.727644 
L 871.837638 269.962323 
L 880.073801 199.498748 
L 884.191882 191.680816 
L 888.309963 200.520699 
L 892.428044 217.515758 
L 896.546125 217.944977 
L 900.664207 199.141064 
L 904.782288 200.336748 
L 908.900369 185.109666 
L 913.01845 201.072553 
L 917.136531 216.248537 
L 921.254613 219.396149 
L 925.372694 231.25079 
L 929.490775 250.003605 
L 933.608856 246.784457 
L 937.726937 253.241245 
L 941.845018 253.115448 
L 945.9631 260.128925 
L 950.081181 256.448714 
L 954.199262 266.0659 
L 958.317343 256.222181 
L 962.435424 260.83532 
L 966.553506 260.036384 
L 970.671587 262.524461 
L 974.789668 261.559446 
L 978.907749 253.242263 
L 983.02583 255.573729 
L 987.143911 254.602388 
L 991.261993 243.863189 
L 995.380074 238.782574 
L 999.498155 241.971064 
L 1003.616236 233.401534 
L 1007.734317 229.97043 
L 1011.852399 225.303959 
L 1015.97048 246.333404 
L 1020.088561 237.589678 
L 1024.206642 237.794347 
L 1028.324723 243.744817 
L 1032.442804 247.409461 
L 1036.560886 252.390529 
L 1040.678967 260.05961 
L 1044.797048 254.460288 
L 1048.915129 251.657834 
L 1053.03321 253.936726 
L 1057.151292 259.197919 
L 1061.269373 259.47942 
L 1065.387454 262.464604 
L 1069.505535 260.105598 
L 1073.623616 263.005386 
L 1081.859779 265.118758 
L 1085.97786 264.288713 
L 1094.214022 273.391993 
L 1098.332103 279.333621 
L 1102.450185 284.424474 
L 1106.568266 268.652831 
L 1110.686347 270.730181 
L 1114.804428 282.142966 
L 1118.922509 281.288336 
L 1123.04059 284.232858 
L 1127.158672 288.567685 
L 1131.276753 291.987939 
L 1135.394834 292.511911 
L 1139.512915 283.58494 
L 1143.630996 278.743111 
L 1147.749077 288.533045 
L 1151.867159 285.585533 
L 1155.98524 286.227352 
L 1160.103321 274.13578 
L 1164.221402 257.354845 
L 1168.339483 273.327796 
L 1172.457565 281.615639 
L 1176.575646 271.138032 
L 1180.693727 272.824253 
L 1184.811808 282.557149 
L 1188.929889 291.811208 
L 1193.04797 286.374424 
L 1197.166052 272.243709 
L 1201.284133 270.172752 
L 1205.402214 283.909178 
L 1209.520295 277.737916 
L 1213.638376 268.997508 
L 1217.756458 267.23269 
L 1221.874539 263.786158 
L 1230.110701 259.582545 
L 1234.228782 242.547936 
L 1238.346863 235.124843 
L 1242.464945 222.33753 
L 1246.583026 207.756583 
L 1250.701107 198.732284 
L 1254.819188 182.118808 
L 1258.937269 162.781007 
L 1263.055351 151.166785 
L 1267.173432 147.551703 
L 1271.291513 136.060727 
L 1275.409594 159.583407 
L 1279.527675 155.407368 
L 1283.645756 163.859516 
L 1287.763838 151.031284 
L 1291.881919 166.965905 
L 1296 159.703945 
L 1296 159.703945 
" clip-path="url(#p06d84ac070)" style="fill: none; stroke: #c44e52; stroke-width: 1.5; stroke-linecap: round"/>
   </g>
   <g id="line2d_15">
    <path d="M 180 332.13787 
L 184.118081 336.562921 
L 188.236162 339.219996 
L 192.354244 341.059509 
L 196.472325 341.192363 
L 200.590406 342.868363 
L 204.708487 344.769194 
L 208.826568 347.39561 
L 212.944649 346.802878 
L 217.062731 349.551928 
L 221.180812 352.955028 
L 225.298893 355.43837 
L 229.416974 353.374028 
L 233.535055 354.212028 
L 237.653137 355.295297 
L 241.771218 357.369859 
L 245.889299 356.29681 
L 250.00738 356.674932 
L 254.125461 358.453128 
L 262.361624 361.682496 
L 266.479705 362.735106 
L 270.597786 362.285447 
L 274.715867 361.60074 
L 278.833948 363.174545 
L 282.95203 361.59052 
L 287.070111 356.746469 
L 291.188192 356.531859 
L 295.306273 357.543591 
L 299.424354 357.441396 
L 303.542435 357.226786 
L 307.660517 358.023908 
L 311.778598 353.568199 
L 315.896679 352.423613 
L 320.01476 347.722634 
L 324.132841 347.589781 
L 328.250923 344.411511 
L 332.369004 344.922487 
L 336.487085 348.499318 
L 340.605166 348.24383 
L 344.723247 347.855488 
L 348.841328 351.524295 
L 352.95941 350.35927 
L 361.195572 348.315367 
L 365.313653 349.817636 
L 369.431734 351.62649 
L 373.549815 349.797197 
L 377.667897 345.770707 
L 381.785978 348.621952 
L 390.02214 349.316879 
L 394.140221 349.102269 
L 398.258303 345.740048 
L 402.376384 349.674562 
L 406.494465 351.830881 
L 410.612546 351.493637 
L 414.730627 354.120053 
L 418.848708 353.200296 
L 422.96679 348.754806 
L 427.084871 348.713928 
L 431.202952 344.339974 
L 435.321033 335.888433 
L 439.439114 334.764286 
L 443.557196 329.184429 
L 447.675277 325.14772 
L 451.793358 327.334696 
L 455.911439 333.374431 
L 460.02952 339.036044 
L 464.147601 337.911897 
L 468.265683 333.905846 
L 472.383764 328.857405 
L 476.501845 321.703742 
L 480.619926 322.122742 
L 484.738007 325.576939 
L 488.856089 324.606085 
L 492.97417 325.035305 
L 497.092251 324.93311 
L 501.210332 320.579595 
L 505.328413 311.279834 
L 509.446494 307.682564 
L 513.564576 309.66515 
L 517.682657 308.009588 
L 521.800738 308.132222 
L 525.918819 305.618221 
L 530.0369 305.669319 
L 534.154982 307.794978 
L 538.273063 305.158343 
L 542.391144 300.733291 
L 546.509225 291.770774 
L 550.627306 294.734434 
L 554.745387 297.125802 
L 558.863469 291.668579 
L 562.98155 293.385458 
L 567.099631 291.86275 
L 571.217712 293.089092 
L 575.335793 285.097429 
L 579.453875 268.500932 
L 583.571956 261.888904 
L 587.690037 272.762471 
L 591.808118 275.215155 
L 595.926199 272.701154 
L 600.04428 269.165201 
L 604.162362 271.456319 
L 608.280443 278.794309 
L 612.398524 295.768383 
L 616.516605 285.933688 
L 620.634686 293.728834 
L 624.752768 301.928975 
L 628.870849 304.504293 
L 632.98893 308.500125 
L 637.107011 309.297247 
L 641.225092 309.205272 
L 645.343173 311.075443 
L 649.461255 313.231762 
L 653.579336 312.545594 
L 657.697417 311.044785 
L 661.815498 311.364842 
L 665.933579 315.480056 
L 670.051661 315.061055 
L 674.169742 314.866885 
L 678.287823 317.115179 
L 682.405904 317.759008 
L 686.523985 313.395274 
L 690.642066 314.32525 
L 694.760148 307.876734 
L 698.878229 299.343437 
L 702.99631 301.990292 
L 707.114391 303.421025 
L 711.232472 289.389627 
L 715.350554 292.424823 
L 719.468635 290.329822 
L 723.586716 283.17616 
L 727.704797 274.734838 
L 731.822878 265.762101 
L 735.940959 266.538785 
L 740.059041 261.827587 
L 744.177122 265.946053 
L 748.295203 271.280641 
L 752.413284 271.955129 
L 756.531365 278.097059 
L 760.649446 286.231796 
L 764.767528 287.110674 
L 768.885609 285.914991 
L 773.00369 287.642089 
L 777.121771 282.31772 
L 781.239852 280.641719 
L 785.357934 282.450574 
L 789.476015 277.500434 
L 793.594096 278.464962 
L 797.712177 277.541042 
L 801.830258 277.626962 
L 805.948339 279.231426 
L 810.066421 279.721963 
L 814.184502 286.671235 
L 818.302583 287.774943 
L 822.420664 284.606892 
L 826.538745 280.171621 
L 830.656827 277.892669 
L 834.774908 282.573208 
L 838.892989 285.128088 
L 843.01107 293.702263 
L 847.129151 289.185236 
L 851.247232 290.411578 
L 855.365314 296.778338 
L 863.601476 305.025489 
L 867.719557 296.665923 
L 871.837638 296.829436 
L 875.95572 288.480089 
L 880.073801 278.802206 
L 884.191882 278.618255 
L 888.309963 281.234451 
L 892.428044 285.404015 
L 896.546125 282.460793 
L 900.664207 284.034599 
L 904.782288 283.758672 
L 908.900369 279.486914 
L 913.01845 281.162915 
L 917.136531 285.894551 
L 921.254613 286.323771 
L 925.372694 285.966088 
L 929.490775 292.302189 
L 933.608856 292.404384 
L 937.726937 297.006087 
L 941.845018 294.259227 
L 945.9631 297.451938 
L 950.081181 298.825648 
L 954.199262 303.201305 
L 958.317343 301.889026 
L 962.435424 302.949953 
L 966.553506 305.467715 
L 970.671587 310.213111 
L 974.789668 310.818496 
L 978.907749 309.222459 
L 983.02583 304.548091 
L 987.143911 300.712852 
L 991.261993 298.068647 
L 995.380074 293.735244 
L 999.498155 292.683866 
L 1003.616236 287.47579 
L 1007.734317 280.56337 
L 1011.852399 280.489356 
L 1015.97048 282.394831 
L 1020.088561 275.787448 
L 1024.206642 277.65762 
L 1028.324723 277.407908 
L 1032.442804 280.636341 
L 1036.560886 285.966977 
L 1040.678967 282.300997 
L 1044.797048 279.243592 
L 1048.915129 279.67442 
L 1053.03321 285.0965 
L 1057.151292 285.934036 
L 1061.269373 293.152732 
L 1065.387454 296.966669 
L 1069.505535 295.887846 
L 1073.623616 295.28731 
L 1077.741697 296.370044 
L 1081.859779 296.241083 
L 1085.97786 295.797709 
L 1090.095941 298.526362 
L 1094.214022 300.33984 
L 1098.332103 303.700476 
L 1102.450185 308.101564 
L 1106.568266 299.334146 
L 1110.686347 301.136498 
L 1114.804428 307.212466 
L 1118.922509 306.523577 
L 1123.04059 306.105181 
L 1127.158672 307.83829 
L 1131.276753 311.595106 
L 1135.394834 313.805832 
L 1139.512915 310.842949 
L 1143.630996 310.934592 
L 1147.749077 314.156628 
L 1151.867159 314.290212 
L 1155.98524 316.344716 
L 1160.103321 311.600532 
L 1164.221402 311.654063 
L 1168.339483 314.384245 
L 1172.457565 316.924584 
L 1176.575646 317.54765 
L 1180.693727 321.11612 
L 1184.811808 320.570349 
L 1188.929889 320.483176 
L 1193.04797 317.312904 
L 1197.166052 312.212243 
L 1201.284133 312.114583 
L 1205.402214 316.626964 
L 1209.520295 312.513962 
L 1213.638376 312.866182 
L 1217.756458 314.221522 
L 1221.874539 311.50313 
L 1225.99262 311.004351 
L 1230.110701 310.385626 
L 1238.346863 299.767816 
L 1242.464945 290.047362 
L 1246.583026 289.217753 
L 1250.701107 279.589109 
L 1254.819188 278.930875 
L 1258.937269 274.682565 
L 1263.055351 271.249128 
L 1267.173432 274.363376 
L 1271.291513 274.656816 
L 1275.409594 280.383466 
L 1279.527675 280.239752 
L 1283.645756 281.125449 
L 1287.763838 280.397635 
L 1291.881919 283.83604 
L 1296 274.428252 
L 1296 274.428252 
" clip-path="url(#p06d84ac070)" style="fill: none; stroke: #8172b3; stroke-width: 1.5; stroke-linecap: round"/>
   </g>
   <g id="patch_3">
    <path d="M 180 378 
L 180 51.84 
" style="fill: none; stroke: #ffffff; stroke-width: 1.25; stroke-linejoin: miter; stroke-linecap: square"/>
   </g>
   <g id="patch_4">
    <path d="M 1296 378 
L 1296 51.84 
" style="fill: none; stroke: #ffffff; stroke-width: 1.25; stroke-linejoin: miter; stroke-linecap: square"/>
   </g>
   <g id="patch_5">
    <path d="M 180 378 
L 1296 378 
" style="fill: none; stroke: #ffffff; stroke-width: 1.25; stroke-linejoin: miter; stroke-linecap: square"/>
   </g>
   <g id="patch_6">
    <path d="M 180 51.84 
L 1296 51.84 
" style="fill: none; stroke: #ffffff; stroke-width: 1.25; stroke-linejoin: miter; stroke-linecap: square"/>
   </g>
   <g id="legend_1">
    <g id="patch_7">
     <path d="M 187.7 139.370781 
L 315.232969 139.370781 
Q 317.432969 139.370781 317.432969 137.170781 
L 317.432969 59.54 
Q 317.432969 57.34 315.232969 57.34 
L 187.7 57.34 
Q 185.5 57.34 185.5 59.54 
L 185.5 137.170781 
Q 185.5 139.370781 187.7 139.370781 
z
" style="fill: #eaeaf2; opacity: 0.8; stroke: #cccccc; stroke-linejoin: miter"/>
    </g>
    <g id="line2d_16">
     <path d="M 189.9 65.904531 
L 200.9 65.904531 
L 211.9 65.904531 
" style="fill: none; stroke: #4c72b0; stroke-width: 1.5; stroke-linecap: round"/>
    </g>
    <g id="text_12">
     <!-- OIC_price -->
     <g style="fill: #262626" transform="translate(220.7 69.754531)scale(0.11 -0.11)">
      <defs>
       <path id="ArialMT-4f" d="M 309 2231 
Q 309 3372 921 4017 
Q 1534 4663 2503 4663 
Q 3138 4663 3647 4359 
Q 4156 4056 4423 3514 
Q 4691 2972 4691 2284 
Q 4691 1588 4409 1038 
Q 4128 488 3612 205 
Q 3097 -78 2500 -78 
Q 1853 -78 1343 234 
Q 834 547 571 1087 
Q 309 1628 309 2231 
z
M 934 2222 
Q 934 1394 1379 917 
Q 1825 441 2497 441 
Q 3181 441 3623 922 
Q 4066 1403 4066 2288 
Q 4066 2847 3877 3264 
Q 3688 3681 3323 3911 
Q 2959 4141 2506 4141 
Q 1863 4141 1398 3698 
Q 934 3256 934 2222 
z
" transform="scale(0.015625)"/>
       <path id="ArialMT-49" d="M 597 0 
L 597 4581 
L 1203 4581 
L 1203 0 
L 597 0 
z
" transform="scale(0.015625)"/>
       <path id="ArialMT-43" d="M 3763 1606 
L 4369 1453 
Q 4178 706 3683 314 
Q 3188 -78 2472 -78 
Q 1731 -78 1267 223 
Q 803 525 561 1097 
Q 319 1669 319 2325 
Q 319 3041 592 3573 
Q 866 4106 1370 4382 
Q 1875 4659 2481 4659 
Q 3169 4659 3637 4309 
Q 4106 3959 4291 3325 
L 3694 3184 
Q 3534 3684 3231 3912 
Q 2928 4141 2469 4141 
Q 1941 4141 1586 3887 
Q 1231 3634 1087 3207 
Q 944 2781 944 2328 
Q 944 1744 1114 1308 
Q 1284 872 1643 656 
Q 2003 441 2422 441 
Q 2931 441 3284 734 
Q 3638 1028 3763 1606 
z
" transform="scale(0.015625)"/>
       <path id="ArialMT-5f" d="M -97 -1272 
L -97 -866 
L 3631 -866 
L 3631 -1272 
L -97 -1272 
z
" transform="scale(0.015625)"/>
       <path id="ArialMT-70" d="M 422 -1272 
L 422 3319 
L 934 3319 
L 934 2888 
Q 1116 3141 1344 3267 
Q 1572 3394 1897 3394 
Q 2322 3394 2647 3175 
Q 2972 2956 3137 2557 
Q 3303 2159 3303 1684 
Q 3303 1175 3120 767 
Q 2938 359 2589 142 
Q 2241 -75 1856 -75 
Q 1575 -75 1351 44 
Q 1128 163 984 344 
L 984 -1272 
L 422 -1272 
z
M 931 1641 
Q 931 1000 1190 694 
Q 1450 388 1819 388 
Q 2194 388 2461 705 
Q 2728 1022 2728 1688 
Q 2728 2322 2467 2637 
Q 2206 2953 1844 2953 
Q 1484 2953 1207 2617 
Q 931 2281 931 1641 
z
" transform="scale(0.015625)"/>
       <path id="ArialMT-72" d="M 416 0 
L 416 3319 
L 922 3319 
L 922 2816 
Q 1116 3169 1280 3281 
Q 1444 3394 1641 3394 
Q 1925 3394 2219 3213 
L 2025 2691 
Q 1819 2813 1613 2813 
Q 1428 2813 1281 2702 
Q 1134 2591 1072 2394 
Q 978 2094 978 1738 
L 978 0 
L 416 0 
z
" transform="scale(0.015625)"/>
       <path id="ArialMT-69" d="M 425 3934 
L 425 4581 
L 988 4581 
L 988 3934 
L 425 3934 
z
M 425 0 
L 425 3319 
L 988 3319 
L 988 0 
L 425 0 
z
" transform="scale(0.015625)"/>
       <path id="ArialMT-63" d="M 2588 1216 
L 3141 1144 
Q 3050 572 2676 248 
Q 2303 -75 1759 -75 
Q 1078 -75 664 370 
Q 250 816 250 1647 
Q 250 2184 428 2587 
Q 606 2991 970 3192 
Q 1334 3394 1763 3394 
Q 2303 3394 2647 3120 
Q 2991 2847 3088 2344 
L 2541 2259 
Q 2463 2594 2264 2762 
Q 2066 2931 1784 2931 
Q 1359 2931 1093 2626 
Q 828 2322 828 1663 
Q 828 994 1084 691 
Q 1341 388 1753 388 
Q 2084 388 2306 591 
Q 2528 794 2588 1216 
z
" transform="scale(0.015625)"/>
      </defs>
      <use xlink:href="#ArialMT-4f"/>
      <use xlink:href="#ArialMT-49" x="77.783203"/>
      <use xlink:href="#ArialMT-43" x="105.566406"/>
      <use xlink:href="#ArialMT-5f" x="177.783203"/>
      <use xlink:href="#ArialMT-70" x="233.398438"/>
      <use xlink:href="#ArialMT-72" x="289.013672"/>
      <use xlink:href="#ArialMT-69" x="322.314453"/>
      <use xlink:href="#ArialMT-63" x="344.53125"/>
      <use xlink:href="#ArialMT-65" x="394.53125"/>
     </g>
    </g>
    <g id="line2d_17">
     <path d="M 189.9 81.598438 
L 200.9 81.598438 
L 211.9 81.598438 
" style="fill: none; stroke: #dd8452; stroke-width: 1.5; stroke-linecap: round"/>
    </g>
    <g id="text_13">
     <!-- Colombia_average -->
     <g style="fill: #262626" transform="translate(220.7 85.448438)scale(0.11 -0.11)">
      <defs>
       <path id="ArialMT-6f" d="M 213 1659 
Q 213 2581 725 3025 
Q 1153 3394 1769 3394 
Q 2453 3394 2887 2945 
Q 3322 2497 3322 1706 
Q 3322 1066 3130 698 
Q 2938 331 2570 128 
Q 2203 -75 1769 -75 
Q 1072 -75 642 372 
Q 213 819 213 1659 
z
M 791 1659 
Q 791 1022 1069 705 
Q 1347 388 1769 388 
Q 2188 388 2466 706 
Q 2744 1025 2744 1678 
Q 2744 2294 2464 2611 
Q 2184 2928 1769 2928 
Q 1347 2928 1069 2612 
Q 791 2297 791 1659 
z
" transform="scale(0.015625)"/>
       <path id="ArialMT-6c" d="M 409 0 
L 409 4581 
L 972 4581 
L 972 0 
L 409 0 
z
" transform="scale(0.015625)"/>
       <path id="ArialMT-6d" d="M 422 0 
L 422 3319 
L 925 3319 
L 925 2853 
Q 1081 3097 1340 3245 
Q 1600 3394 1931 3394 
Q 2300 3394 2536 3241 
Q 2772 3088 2869 2813 
Q 3263 3394 3894 3394 
Q 4388 3394 4653 3120 
Q 4919 2847 4919 2278 
L 4919 0 
L 4359 0 
L 4359 2091 
Q 4359 2428 4304 2576 
Q 4250 2725 4106 2815 
Q 3963 2906 3769 2906 
Q 3419 2906 3187 2673 
Q 2956 2441 2956 1928 
L 2956 0 
L 2394 0 
L 2394 2156 
Q 2394 2531 2256 2718 
Q 2119 2906 1806 2906 
Q 1569 2906 1367 2781 
Q 1166 2656 1075 2415 
Q 984 2175 984 1722 
L 984 0 
L 422 0 
z
" transform="scale(0.015625)"/>
       <path id="ArialMT-62" d="M 941 0 
L 419 0 
L 419 4581 
L 981 4581 
L 981 2947 
Q 1338 3394 1891 3394 
Q 2197 3394 2470 3270 
Q 2744 3147 2920 2923 
Q 3097 2700 3197 2384 
Q 3297 2069 3297 1709 
Q 3297 856 2875 390 
Q 2453 -75 1863 -75 
Q 1275 -75 941 416 
L 941 0 
z
M 934 1684 
Q 934 1088 1097 822 
Q 1363 388 1816 388 
Q 2184 388 2453 708 
Q 2722 1028 2722 1663 
Q 2722 2313 2464 2622 
Q 2206 2931 1841 2931 
Q 1472 2931 1203 2611 
Q 934 2291 934 1684 
z
" transform="scale(0.015625)"/>
       <path id="ArialMT-76" d="M 1344 0 
L 81 3319 
L 675 3319 
L 1388 1331 
Q 1503 1009 1600 663 
Q 1675 925 1809 1294 
L 2547 3319 
L 3125 3319 
L 1869 0 
L 1344 0 
z
" transform="scale(0.015625)"/>
       <path id="ArialMT-67" d="M 319 -275 
L 866 -356 
Q 900 -609 1056 -725 
Q 1266 -881 1628 -881 
Q 2019 -881 2231 -725 
Q 2444 -569 2519 -288 
Q 2563 -116 2559 434 
Q 2191 0 1641 0 
Q 956 0 581 494 
Q 206 988 206 1678 
Q 206 2153 378 2554 
Q 550 2956 876 3175 
Q 1203 3394 1644 3394 
Q 2231 3394 2613 2919 
L 2613 3319 
L 3131 3319 
L 3131 450 
Q 3131 -325 2973 -648 
Q 2816 -972 2473 -1159 
Q 2131 -1347 1631 -1347 
Q 1038 -1347 672 -1080 
Q 306 -813 319 -275 
z
M 784 1719 
Q 784 1066 1043 766 
Q 1303 466 1694 466 
Q 2081 466 2343 764 
Q 2606 1063 2606 1700 
Q 2606 2309 2336 2618 
Q 2066 2928 1684 2928 
Q 1309 2928 1046 2623 
Q 784 2319 784 1719 
z
" transform="scale(0.015625)"/>
      </defs>
      <use xlink:href="#ArialMT-43"/>
      <use xlink:href="#ArialMT-6f" x="72.216797"/>
      <use xlink:href="#ArialMT-6c" x="127.832031"/>
      <use xlink:href="#ArialMT-6f" x="150.048828"/>
      <use xlink:href="#ArialMT-6d" x="205.664062"/>
      <use xlink:href="#ArialMT-62" x="288.964844"/>
      <use xlink:href="#ArialMT-69" x="344.580078"/>
      <use xlink:href="#ArialMT-61" x="366.796875"/>
      <use xlink:href="#ArialMT-5f" x="422.412109"/>
      <use xlink:href="#ArialMT-61" x="478.027344"/>
      <use xlink:href="#ArialMT-76" x="533.642578"/>
      <use xlink:href="#ArialMT-65" x="583.642578"/>
      <use xlink:href="#ArialMT-72" x="639.257812"/>
      <use xlink:href="#ArialMT-61" x="672.558594"/>
      <use xlink:href="#ArialMT-67" x="728.173828"/>
      <use xlink:href="#ArialMT-65" x="783.789062"/>
     </g>
    </g>
    <g id="line2d_18">
     <path d="M 189.9 97.428125 
L 200.9 97.428125 
L 211.9 97.428125 
" style="fill: none; stroke: #55a868; stroke-width: 1.5; stroke-linecap: round"/>
    </g>
    <g id="text_14">
     <!-- Other_average -->
     <g style="fill: #262626" transform="translate(220.7 101.278125)scale(0.11 -0.11)">
      <defs>
       <path id="ArialMT-68" d="M 422 0 
L 422 4581 
L 984 4581 
L 984 2938 
Q 1378 3394 1978 3394 
Q 2347 3394 2619 3248 
Q 2891 3103 3008 2847 
Q 3125 2591 3125 2103 
L 3125 0 
L 2563 0 
L 2563 2103 
Q 2563 2525 2380 2717 
Q 2197 2909 1863 2909 
Q 1613 2909 1392 2779 
Q 1172 2650 1078 2428 
Q 984 2206 984 1816 
L 984 0 
L 422 0 
z
" transform="scale(0.015625)"/>
      </defs>
      <use xlink:href="#ArialMT-4f"/>
      <use xlink:href="#ArialMT-74" x="77.783203"/>
      <use xlink:href="#ArialMT-68" x="105.566406"/>
      <use xlink:href="#ArialMT-65" x="161.181641"/>
      <use xlink:href="#ArialMT-72" x="216.796875"/>
      <use xlink:href="#ArialMT-5f" x="250.097656"/>
      <use xlink:href="#ArialMT-61" x="305.712891"/>
      <use xlink:href="#ArialMT-76" x="361.328125"/>
      <use xlink:href="#ArialMT-65" x="411.328125"/>
      <use xlink:href="#ArialMT-72" x="466.943359"/>
      <use xlink:href="#ArialMT-61" x="500.244141"/>
      <use xlink:href="#ArialMT-67" x="555.859375"/>
      <use xlink:href="#ArialMT-65" x="611.474609"/>
     </g>
    </g>
    <g id="line2d_19">
     <path d="M 189.9 113.116875 
L 200.9 113.116875 
L 211.9 113.116875 
" style="fill: none; stroke: #c44e52; stroke-width: 1.5; stroke-linecap: round"/>
    </g>
    <g id="text_15">
     <!-- Brazil_average -->
     <g style="fill: #262626" transform="translate(220.7 116.966875)scale(0.11 -0.11)">
      <defs>
       <path id="ArialMT-42" d="M 469 0 
L 469 4581 
L 2188 4581 
Q 2713 4581 3030 4442 
Q 3347 4303 3526 4014 
Q 3706 3725 3706 3409 
Q 3706 3116 3547 2856 
Q 3388 2597 3066 2438 
Q 3481 2316 3704 2022 
Q 3928 1728 3928 1328 
Q 3928 1006 3792 729 
Q 3656 453 3456 303 
Q 3256 153 2954 76 
Q 2653 0 2216 0 
L 469 0 
z
M 1075 2656 
L 2066 2656 
Q 2469 2656 2644 2709 
Q 2875 2778 2992 2937 
Q 3109 3097 3109 3338 
Q 3109 3566 3000 3739 
Q 2891 3913 2687 3977 
Q 2484 4041 1991 4041 
L 1075 4041 
L 1075 2656 
z
M 1075 541 
L 2216 541 
Q 2509 541 2628 563 
Q 2838 600 2978 687 
Q 3119 775 3209 942 
Q 3300 1109 3300 1328 
Q 3300 1584 3169 1773 
Q 3038 1963 2805 2039 
Q 2572 2116 2134 2116 
L 1075 2116 
L 1075 541 
z
" transform="scale(0.015625)"/>
       <path id="ArialMT-7a" d="M 125 0 
L 125 456 
L 2238 2881 
Q 1878 2863 1603 2863 
L 250 2863 
L 250 3319 
L 2963 3319 
L 2963 2947 
L 1166 841 
L 819 456 
Q 1197 484 1528 484 
L 3063 484 
L 3063 0 
L 125 0 
z
" transform="scale(0.015625)"/>
      </defs>
      <use xlink:href="#ArialMT-42"/>
      <use xlink:href="#ArialMT-72" x="66.699219"/>
      <use xlink:href="#ArialMT-61" x="100"/>
      <use xlink:href="#ArialMT-7a" x="155.615234"/>
      <use xlink:href="#ArialMT-69" x="205.615234"/>
      <use xlink:href="#ArialMT-6c" x="227.832031"/>
      <use xlink:href="#ArialMT-5f" x="250.048828"/>
      <use xlink:href="#ArialMT-61" x="305.664062"/>
      <use xlink:href="#ArialMT-76" x="361.279297"/>
      <use xlink:href="#ArialMT-65" x="411.279297"/>
      <use xlink:href="#ArialMT-72" x="466.894531"/>
      <use xlink:href="#ArialMT-61" x="500.195312"/>
      <use xlink:href="#ArialMT-67" x="555.810547"/>
      <use xlink:href="#ArialMT-65" x="611.425781"/>
     </g>
    </g>
    <g id="line2d_20">
     <path d="M 189.9 128.805625 
L 200.9 128.805625 
L 211.9 128.805625 
" style="fill: none; stroke: #8172b3; stroke-width: 1.5; stroke-linecap: round"/>
    </g>
    <g id="text_16">
     <!-- Robustas_average -->
     <g style="fill: #262626" transform="translate(220.7 132.655625)scale(0.11 -0.11)">
      <defs>
       <path id="ArialMT-52" d="M 503 0 
L 503 4581 
L 2534 4581 
Q 3147 4581 3465 4457 
Q 3784 4334 3975 4021 
Q 4166 3709 4166 3331 
Q 4166 2844 3850 2509 
Q 3534 2175 2875 2084 
Q 3116 1969 3241 1856 
Q 3506 1613 3744 1247 
L 4541 0 
L 3778 0 
L 3172 953 
Q 2906 1366 2734 1584 
Q 2563 1803 2427 1890 
Q 2291 1978 2150 2013 
Q 2047 2034 1813 2034 
L 1109 2034 
L 1109 0 
L 503 0 
z
M 1109 2559 
L 2413 2559 
Q 2828 2559 3062 2645 
Q 3297 2731 3419 2920 
Q 3541 3109 3541 3331 
Q 3541 3656 3305 3865 
Q 3069 4075 2559 4075 
L 1109 4075 
L 1109 2559 
z
" transform="scale(0.015625)"/>
       <path id="ArialMT-75" d="M 2597 0 
L 2597 488 
Q 2209 -75 1544 -75 
Q 1250 -75 995 37 
Q 741 150 617 320 
Q 494 491 444 738 
Q 409 903 409 1263 
L 409 3319 
L 972 3319 
L 972 1478 
Q 972 1038 1006 884 
Q 1059 663 1231 536 
Q 1403 409 1656 409 
Q 1909 409 2131 539 
Q 2353 669 2445 892 
Q 2538 1116 2538 1541 
L 2538 3319 
L 3100 3319 
L 3100 0 
L 2597 0 
z
" transform="scale(0.015625)"/>
       <path id="ArialMT-73" d="M 197 991 
L 753 1078 
Q 800 744 1014 566 
Q 1228 388 1613 388 
Q 2000 388 2187 545 
Q 2375 703 2375 916 
Q 2375 1106 2209 1216 
Q 2094 1291 1634 1406 
Q 1016 1563 777 1677 
Q 538 1791 414 1992 
Q 291 2194 291 2438 
Q 291 2659 392 2848 
Q 494 3038 669 3163 
Q 800 3259 1026 3326 
Q 1253 3394 1513 3394 
Q 1903 3394 2198 3281 
Q 2494 3169 2634 2976 
Q 2775 2784 2828 2463 
L 2278 2388 
Q 2241 2644 2061 2787 
Q 1881 2931 1553 2931 
Q 1166 2931 1000 2803 
Q 834 2675 834 2503 
Q 834 2394 903 2306 
Q 972 2216 1119 2156 
Q 1203 2125 1616 2013 
Q 2213 1853 2448 1751 
Q 2684 1650 2818 1456 
Q 2953 1263 2953 975 
Q 2953 694 2789 445 
Q 2625 197 2315 61 
Q 2006 -75 1616 -75 
Q 969 -75 630 194 
Q 291 463 197 991 
z
" transform="scale(0.015625)"/>
      </defs>
      <use xlink:href="#ArialMT-52"/>
      <use xlink:href="#ArialMT-6f" x="72.216797"/>
      <use xlink:href="#ArialMT-62" x="127.832031"/>
      <use xlink:href="#ArialMT-75" x="183.447266"/>
      <use xlink:href="#ArialMT-73" x="239.0625"/>
      <use xlink:href="#ArialMT-74" x="289.0625"/>
      <use xlink:href="#ArialMT-61" x="316.845703"/>
      <use xlink:href="#ArialMT-73" x="372.460938"/>
      <use xlink:href="#ArialMT-5f" x="422.460938"/>
      <use xlink:href="#ArialMT-61" x="478.076172"/>
      <use xlink:href="#ArialMT-76" x="533.691406"/>
      <use xlink:href="#ArialMT-65" x="583.691406"/>
      <use xlink:href="#ArialMT-72" x="639.306641"/>
      <use xlink:href="#ArialMT-61" x="672.607422"/>
      <use xlink:href="#ArialMT-67" x="728.222656"/>
      <use xlink:href="#ArialMT-65" x="783.837891"/>
     </g>
    </g>
   </g>
  </g>
 </g>
 <defs>
  <clipPath id="p06d84ac070">
   <rect x="180" y="51.84" width="1116" height="326.16"/>
  </clipPath>
 </defs>
</svg>
